<svg xmlns="http://www.w3.org/2000/svg" xmlns:xlink="http://www.w3.org/1999/xlink" width="40" zoomAndPan="magnify" viewBox="0 0 30 30.000001" height="40" preserveAspectRatio="xMidYMid meet" version="1.0"><defs><g/><clipPath id="8434b22840"><path d="M 0.484375 0 L 29.515625 0 L 29.515625 29.03125 L 0.484375 29.03125 Z M 0.484375 0 " clip-rule="nonzero"/></clipPath><clipPath id="296f0951eb"><path d="M 4 22 L 26 22 L 26 24.847656 L 4 24.847656 Z M 4 22 " clip-rule="nonzero"/></clipPath><clipPath id="5eb6cc7328"><path d="M 11 23 L 19 23 L 19 24.847656 L 11 24.847656 Z M 11 23 " clip-rule="nonzero"/></clipPath><clipPath id="59e1f656ed"><path d="M 3 4.527344 L 27 4.527344 L 27 12 L 3 12 Z M 3 4.527344 " clip-rule="nonzero"/></clipPath><clipPath id="c17aa7339f"><path d="M 23 22 L 24 22 L 24 24.847656 L 23 24.847656 Z M 23 22 " clip-rule="nonzero"/></clipPath><clipPath id="60b52ded4e"><path d="M 20 22 L 21 22 L 21 24.847656 L 20 24.847656 Z M 20 22 " clip-rule="nonzero"/></clipPath><clipPath id="71fb1fd658"><path d="M 9 22 L 10 22 L 10 24.847656 L 9 24.847656 Z M 9 22 " clip-rule="nonzero"/></clipPath><clipPath id="2bcf878860"><path d="M 6 22 L 7 22 L 7 24.847656 L 6 24.847656 Z M 6 22 " clip-rule="nonzero"/></clipPath><clipPath id="11c504e70d"><path d="M 2.191406 24 L 27.59375 24 L 27.59375 24.847656 L 2.191406 24.847656 Z M 2.191406 24 " clip-rule="nonzero"/></clipPath></defs><g clip-path="url(#8434b22840)"><path fill="#ffffff" d="M 0.484375 0 L 29.515625 0 L 29.515625 29.03125 L 0.484375 29.03125 Z M 0.484375 0 " fill-opacity="1" fill-rule="nonzero"/><path fill="#ffffff" d="M 0.484375 0 L 29.515625 0 L 29.515625 29.03125 L 0.484375 29.03125 Z M 0.484375 0 " fill-opacity="1" fill-rule="nonzero"/></g><path fill="#fee5ab" d="M 4.867188 22.910156 L 24.917969 22.910156 L 24.917969 11.507812 L 4.867188 11.507812 Z M 4.867188 22.910156 " fill-opacity="1" fill-rule="nonzero"/><path fill="#e5cf9c" d="M 23.867188 19.414062 L 18.242188 19.414062 L 18.242188 18.496094 L 18.402344 18.496094 L 18.402344 14.96875 L 23.707031 14.96875 L 23.707031 18.496094 L 23.867188 18.496094 L 23.867188 19.414062 M 18.46875 18.730469 L 18.46875 19.179688 L 23.640625 19.179688 L 23.640625 18.953125 L 23.773438 18.953125 L 23.773438 18.730469 L 23.480469 18.730469 L 23.480469 15.199219 L 18.628906 15.199219 L 18.628906 18.730469 L 18.46875 18.730469 " fill-opacity="1" fill-rule="nonzero"/><path fill="#feedc3" d="M 4.867188 22.90625 L 5.6875 22.90625 L 5.6875 12.023438 L 4.867188 12.023438 Z M 4.867188 22.90625 " fill-opacity="1" fill-rule="nonzero"/><path fill="#fcdb9a" d="M 4.867188 10.871094 L 4.867188 11.507812 L 24.917969 11.507812 L 24.917969 10.871094 L 14.894531 5.417969 L 4.867188 10.871094 " fill-opacity="1" fill-rule="nonzero"/><g clip-path="url(#296f0951eb)"><path fill="#999773" d="M 4.074219 24.050781 L 25.710938 24.050781 L 25.710938 22.90625 L 4.074219 22.90625 Z M 4.074219 24.050781 " fill-opacity="1" fill-rule="nonzero"/></g><path fill="#a9a484" d="M 25.710938 23.476562 L 23.761719 23.476562 L 23.761719 23.097656 L 25.710938 23.097656 L 25.710938 23.476562 M 23.527344 23.476562 L 20.761719 23.476562 L 20.761719 23.097656 L 23.527344 23.097656 L 23.527344 23.476562 M 20.523438 23.476562 L 9.261719 23.476562 L 9.261719 23.097656 L 20.523438 23.097656 L 20.523438 23.476562 M 9.023438 23.476562 L 6.261719 23.476562 L 6.261719 23.097656 L 9.023438 23.097656 L 9.023438 23.476562 M 6.023438 23.476562 L 4.074219 23.476562 L 4.074219 23.097656 L 6.023438 23.097656 L 6.023438 23.476562 " fill-opacity="1" fill-rule="nonzero"/><path fill="#e5cf9c" d="M 24.917969 22.90625 L 23.867188 22.90625 L 23.867188 12.023438 L 4.867188 12.023438 L 4.867188 11.507812 L 24.917969 11.507812 L 24.917969 22.90625 " fill-opacity="1" fill-rule="nonzero"/><path fill="#e3c68c" d="M 24.917969 11.507812 L 23.867188 11.507812 L 23.847656 11.214844 L 14.894531 6.355469 L 5.503906 11.507812 L 4.867188 11.507812 L 4.867188 11.3125 L 14.894531 5.859375 L 24.917969 11.3125 L 24.917969 11.507812 " fill-opacity="1" fill-rule="nonzero"/><path fill="#ffffff" d="M 17.179688 14.488281 L 12.605469 14.488281 L 12.605469 22.90625 L 17.179688 22.90625 L 17.179688 14.488281 " fill-opacity="1" fill-rule="nonzero"/><path fill="#f49a5d" d="M 12.914062 22.90625 L 12.914062 14.871094 L 16.871094 14.871094 L 16.871094 22.90625 L 12.914062 22.90625 " fill-opacity="1" fill-rule="nonzero"/><path fill="#feb07b" d="M 14.613281 17.386719 L 13.289062 17.386719 C 13.226562 17.320312 13.1875 17.285156 13.125 17.21875 L 13.125 15.242188 C 13.1875 15.175781 13.226562 15.140625 13.289062 15.074219 L 14.613281 15.074219 C 14.675781 15.140625 14.714844 15.175781 14.777344 15.242188 L 14.777344 17.21875 C 14.714844 17.285156 14.675781 17.320312 14.613281 17.386719 " fill-opacity="1" fill-rule="nonzero"/><path fill="#feb07b" d="M 16.492188 17.386719 L 15.167969 17.386719 C 15.101562 17.320312 15.066406 17.285156 15.003906 17.21875 L 15.003906 15.242188 C 15.066406 15.175781 15.101562 15.140625 15.167969 15.074219 L 16.492188 15.074219 C 16.554688 15.140625 16.59375 15.175781 16.65625 15.242188 L 16.65625 17.21875 C 16.59375 17.285156 16.554688 17.320312 16.492188 17.386719 " fill-opacity="1" fill-rule="nonzero"/><path fill="#feb07b" d="M 14.613281 19.996094 L 13.289062 19.996094 C 13.226562 19.929688 13.1875 19.890625 13.125 19.824219 L 13.125 17.851562 C 13.1875 17.785156 13.226562 17.746094 13.289062 17.679688 L 14.613281 17.679688 C 14.675781 17.746094 14.714844 17.785156 14.777344 17.851562 L 14.777344 19.824219 C 14.714844 19.890625 14.675781 19.929688 14.613281 19.996094 " fill-opacity="1" fill-rule="nonzero"/><path fill="#feb07b" d="M 16.492188 19.996094 L 15.167969 19.996094 C 15.101562 19.929688 15.066406 19.890625 15.003906 19.824219 L 15.003906 17.851562 C 15.066406 17.785156 15.101562 17.746094 15.167969 17.679688 L 16.492188 17.679688 C 16.554688 17.746094 16.59375 17.785156 16.65625 17.851562 L 16.65625 19.824219 C 16.59375 19.890625 16.554688 19.929688 16.492188 19.996094 " fill-opacity="1" fill-rule="nonzero"/><path fill="#feb07b" d="M 14.613281 22.566406 L 13.289062 22.566406 C 13.226562 22.5 13.1875 22.460938 13.125 22.394531 L 13.125 20.421875 C 13.1875 20.355469 13.226562 20.316406 13.289062 20.25 L 14.613281 20.25 C 14.675781 20.316406 14.714844 20.355469 14.777344 20.421875 L 14.777344 22.394531 C 14.714844 22.460938 14.675781 22.5 14.613281 22.566406 " fill-opacity="1" fill-rule="nonzero"/><path fill="#feb07b" d="M 16.492188 22.566406 L 15.167969 22.566406 C 15.101562 22.5 15.066406 22.460938 15.003906 22.394531 L 15.003906 20.421875 C 15.066406 20.355469 15.101562 20.316406 15.167969 20.25 L 16.492188 20.25 C 16.554688 20.316406 16.59375 20.355469 16.65625 20.421875 L 16.65625 22.394531 C 16.59375 22.460938 16.554688 22.5 16.492188 22.566406 " fill-opacity="1" fill-rule="nonzero"/><g clip-path="url(#5eb6cc7328)"><path fill="#e6e7e8" d="M 18.136719 23.667969 L 11.648438 23.667969 L 11.648438 24.050781 L 18.136719 24.050781 L 18.136719 23.667969 " fill-opacity="1" fill-rule="nonzero"/></g><path fill="#f1f2f2" d="M 18.136719 23.667969 L 11.648438 23.667969 L 11.648438 23.808594 L 18.136719 23.808594 L 18.136719 23.667969 " fill-opacity="1" fill-rule="nonzero"/><path fill="#e6e7e8" d="M 17.726562 23.289062 L 12.0625 23.289062 L 12.0625 23.667969 L 17.726562 23.667969 L 17.726562 23.289062 " fill-opacity="1" fill-rule="nonzero"/><path fill="#f1f2f2" d="M 17.726562 23.289062 L 12.0625 23.289062 L 12.0625 23.421875 L 17.726562 23.421875 L 17.726562 23.289062 " fill-opacity="1" fill-rule="nonzero"/><path fill="#e6e7e8" d="M 17.28125 22.90625 L 12.503906 22.90625 L 12.503906 23.289062 L 17.28125 23.289062 L 17.28125 22.90625 " fill-opacity="1" fill-rule="nonzero"/><path fill="#f1f2f2" d="M 17.28125 22.90625 L 12.503906 22.90625 L 12.503906 23.046875 L 17.28125 23.046875 L 17.28125 22.90625 " fill-opacity="1" fill-rule="nonzero"/><path fill="#f46c42" d="M 10.367188 6.984375 L 10.367188 5.417969 L 6.996094 5.417969 L 6.996094 8.820312 L 10.367188 6.984375 " fill-opacity="1" fill-rule="nonzero"/><g clip-path="url(#59e1f656ed)"><path fill="#999773" d="M 14.894531 4.527344 L 3.640625 10.644531 L 3.640625 11.953125 L 3.683594 11.953125 L 14.894531 5.859375 L 26.101562 11.953125 L 26.148438 11.953125 L 26.148438 10.644531 L 14.894531 4.527344 " fill-opacity="1" fill-rule="nonzero"/><path fill="#a8a588" d="M 14.894531 4.527344 L 3.640625 10.644531 L 3.640625 11.304688 L 14.894531 5.183594 L 26.148438 11.304688 L 26.148438 10.644531 L 14.894531 4.527344 " fill-opacity="1" fill-rule="nonzero"/></g><path fill="#e6e7e8" d="M 10.367188 6.984375 L 10.367188 5.417969 L 6.996094 5.417969 L 10.367188 5.417969 L 10.367188 6.984375 " fill-opacity="1" fill-rule="nonzero"/><path fill="#dc623c" d="M 9.816406 7.285156 L 9.816406 6.074219 L 6.996094 6.074219 L 6.996094 5.417969 L 10.367188 5.417969 L 10.367188 6.984375 L 9.816406 7.285156 " fill-opacity="1" fill-rule="nonzero"/><path fill="#8a8969" d="M 9.816406 7.285156 L 10.367188 6.984375 L 9.816406 7.285156 " fill-opacity="1" fill-rule="nonzero"/><path fill="#98957c" d="M 9.816406 7.285156 L 10.367188 6.984375 L 9.816406 7.285156 " fill-opacity="1" fill-rule="nonzero"/><path fill="#f46c42" d="M 10.824219 5.78125 L 6.558594 5.78125 C 6.496094 5.78125 6.445312 5.730469 6.445312 5.667969 L 6.445312 5.144531 C 6.445312 5.082031 6.496094 5.03125 6.558594 5.03125 L 10.824219 5.03125 C 10.882812 5.03125 10.933594 5.082031 10.933594 5.144531 L 10.933594 5.667969 C 10.933594 5.730469 10.882812 5.78125 10.824219 5.78125 " fill-opacity="1" fill-rule="nonzero"/><path fill="#e5cf9c" d="M 11.742188 19.414062 L 6.117188 19.414062 L 6.117188 18.496094 L 6.277344 18.496094 L 6.277344 14.96875 L 11.582031 14.96875 L 11.582031 18.496094 L 11.742188 18.496094 L 11.742188 19.414062 M 6.660156 18.136719 L 6.660156 18.652344 L 11.203125 18.652344 L 11.203125 18.136719 C 11.210938 18.136719 11.222656 18.136719 11.230469 18.136719 C 11.253906 18.136719 11.28125 18.136719 11.304688 18.136719 L 11.304688 15.238281 L 9.644531 15.238281 C 9.644531 15.261719 9.648438 15.285156 9.652344 15.3125 L 8.207031 15.3125 C 8.210938 15.285156 8.214844 15.261719 8.21875 15.238281 L 6.554688 15.238281 L 6.554688 18.136719 C 6.578125 18.136719 6.605469 18.136719 6.628906 18.136719 C 6.640625 18.136719 6.648438 18.136719 6.660156 18.136719 " fill-opacity="1" fill-rule="nonzero"/><path fill="#5b4c49" d="M 18.78125 18.652344 L 23.324219 18.652344 L 23.324219 15.3125 L 18.78125 15.3125 Z M 18.78125 18.652344 " fill-opacity="1" fill-rule="nonzero"/><path fill="#82716d" d="M 19.429688 18.347656 L 19.015625 18.347656 L 19.015625 18.125 C 19.167969 18.105469 19.292969 18.070312 19.320312 17.996094 C 19.339844 17.945312 19.351562 17.832031 19.351562 17.683594 L 20.855469 15.75 L 20.855469 16.515625 L 19.429688 18.347656 " fill-opacity="1" fill-rule="nonzero"/><path fill="#82716d" d="M 19.316406 16.910156 C 19.304688 16.742188 19.289062 16.585938 19.277344 16.460938 L 19.28125 16.460938 C 19.914062 16.214844 20.171875 15.816406 20.277344 15.511719 L 20.402344 15.511719 L 19.316406 16.910156 " fill-opacity="1" fill-rule="nonzero"/><path fill="#82716d" d="M 21.773438 18.347656 L 21.359375 18.347656 L 21.359375 18.113281 L 22.6875 16.402344 C 22.734375 16.421875 22.777344 16.441406 22.828125 16.460938 C 22.8125 16.621094 22.792969 16.835938 22.78125 17.054688 L 21.773438 18.347656 " fill-opacity="1" fill-rule="nonzero"/><path fill="#82716d" d="M 21.359375 17.296875 L 21.359375 16.804688 L 22.046875 15.917969 C 22.105469 15.992188 22.175781 16.066406 22.261719 16.136719 L 21.359375 17.296875 " fill-opacity="1" fill-rule="nonzero"/><path fill="#fc8465" d="M 18.679688 18.136719 C 18.960938 18.140625 19.273438 18.117188 19.320312 17.996094 C 19.414062 17.765625 19.253906 16.203125 19.253906 16.203125 C 19.222656 15.722656 19.136719 15.421875 19.039062 15.238281 L 18.679688 15.238281 L 18.679688 18.136719 " fill-opacity="1" fill-rule="nonzero"/><path fill="#fc7256" d="M 20.339844 15.238281 L 18.679688 15.238281 L 18.679688 16.621094 C 20.0625 16.382812 20.300781 15.578125 20.339844 15.238281 " fill-opacity="1" fill-rule="nonzero"/><path fill="#ee7d60" d="M 19.152344 18.046875 C 19.152344 18.046875 19.269531 17.804688 19.253906 17.5 C 19.238281 17.195312 19.238281 16.621094 19.238281 16.621094 C 19.238281 16.621094 19.339844 17.722656 19.289062 17.875 C 19.234375 18.023438 19.152344 18.046875 19.152344 18.046875 " fill-opacity="1" fill-rule="nonzero"/><path fill="#ee6c52" d="M 18.984375 16.464844 C 18.984375 16.464844 19.515625 16.210938 19.765625 15.988281 C 20.015625 15.765625 20.203125 15.511719 20.203125 15.511719 C 20.203125 15.511719 20.035156 15.929688 19.671875 16.160156 C 19.308594 16.390625 18.984375 16.464844 18.984375 16.464844 " fill-opacity="1" fill-rule="nonzero"/><path fill="#ee6c52" d="M 19.066406 16.09375 C 19.066406 16.09375 19.351562 15.957031 19.484375 15.839844 C 19.621094 15.71875 19.722656 15.582031 19.722656 15.582031 C 19.722656 15.582031 19.632812 15.804688 19.4375 15.929688 C 19.242188 16.054688 19.066406 16.09375 19.066406 16.09375 " fill-opacity="1" fill-rule="nonzero"/><path fill="#fc8465" d="M 23.425781 18.136719 C 23.144531 18.140625 22.832031 18.117188 22.785156 17.996094 C 22.691406 17.765625 22.851562 16.203125 22.851562 16.203125 C 22.882812 15.722656 22.96875 15.421875 23.066406 15.238281 L 23.425781 15.238281 L 23.425781 18.136719 " fill-opacity="1" fill-rule="nonzero"/><path fill="#fc7256" d="M 21.765625 15.238281 L 23.425781 15.238281 L 23.425781 16.621094 C 22.042969 16.382812 21.804688 15.578125 21.765625 15.238281 " fill-opacity="1" fill-rule="nonzero"/><path fill="#ee7d60" d="M 22.953125 18.046875 C 22.953125 18.046875 22.871094 18.023438 22.816406 17.875 C 22.765625 17.722656 22.867188 16.621094 22.867188 16.621094 C 22.867188 16.621094 22.867188 17.195312 22.851562 17.5 C 22.835938 17.804688 22.953125 18.046875 22.953125 18.046875 " fill-opacity="1" fill-rule="nonzero"/><path fill="#ee6c52" d="M 23.121094 16.464844 C 23.121094 16.464844 22.796875 16.390625 22.433594 16.160156 C 22.070312 15.929688 21.902344 15.511719 21.902344 15.511719 C 21.902344 15.511719 22.089844 15.765625 22.339844 15.988281 C 22.589844 16.210938 23.121094 16.464844 23.121094 16.464844 " fill-opacity="1" fill-rule="nonzero"/><path fill="#ee6c52" d="M 23.039062 16.09375 C 23.039062 16.09375 22.863281 16.054688 22.667969 15.929688 C 22.472656 15.804688 22.382812 15.582031 22.382812 15.582031 C 22.382812 15.582031 22.484375 15.71875 22.621094 15.839844 C 22.753906 15.957031 23.039062 16.09375 23.039062 16.09375 " fill-opacity="1" fill-rule="nonzero"/><path fill="#f1f2f2" d="M 23.199219 18.507812 L 21.1875 18.507812 L 21.1875 15.464844 L 23.199219 15.464844 L 23.199219 18.507812 M 20.921875 18.507812 L 18.910156 18.507812 L 18.910156 15.464844 L 20.921875 15.464844 L 20.921875 18.507812 M 18.628906 15.199219 L 18.628906 18.765625 L 23.480469 18.765625 L 23.480469 15.199219 L 18.628906 15.199219 " fill-opacity="1" fill-rule="nonzero"/><path fill="#999773" d="M 18.46875 19.179688 L 23.640625 19.179688 L 23.640625 18.730469 L 18.46875 18.730469 Z M 18.46875 19.179688 " fill-opacity="1" fill-rule="nonzero"/><path fill="#5b4c49" d="M 6.660156 18.652344 L 11.203125 18.652344 L 11.203125 15.3125 L 6.660156 15.3125 Z M 6.660156 18.652344 " fill-opacity="1" fill-rule="nonzero"/><path fill="#82716d" d="M 7.308594 18.347656 L 6.890625 18.347656 L 6.890625 18.125 C 7.046875 18.105469 7.167969 18.070312 7.199219 17.996094 C 7.21875 17.945312 7.226562 17.832031 7.226562 17.683594 L 8.734375 15.75 L 8.734375 16.515625 L 7.308594 18.347656 " fill-opacity="1" fill-rule="nonzero"/><path fill="#82716d" d="M 7.191406 16.910156 C 7.179688 16.742188 7.167969 16.585938 7.15625 16.460938 L 7.160156 16.460938 C 7.792969 16.214844 8.050781 15.816406 8.15625 15.511719 L 8.28125 15.511719 L 7.191406 16.910156 " fill-opacity="1" fill-rule="nonzero"/><path fill="#82716d" d="M 9.652344 18.347656 L 9.234375 18.347656 L 9.234375 18.113281 L 10.566406 16.402344 C 10.609375 16.421875 10.65625 16.441406 10.703125 16.460938 C 10.6875 16.621094 10.671875 16.835938 10.65625 17.054688 L 9.652344 18.347656 " fill-opacity="1" fill-rule="nonzero"/><path fill="#82716d" d="M 9.234375 17.296875 L 9.234375 16.804688 L 9.925781 15.917969 C 9.984375 15.992188 10.054688 16.066406 10.140625 16.136719 L 9.234375 17.296875 " fill-opacity="1" fill-rule="nonzero"/><path fill="#fc8465" d="M 6.554688 18.136719 C 6.839844 18.140625 7.148438 18.117188 7.199219 17.996094 C 7.289062 17.765625 7.132812 16.203125 7.132812 16.203125 C 7.101562 15.722656 7.015625 15.421875 6.914062 15.238281 L 6.554688 15.238281 L 6.554688 18.136719 " fill-opacity="1" fill-rule="nonzero"/><path fill="#fc7256" d="M 8.21875 15.238281 L 6.554688 15.238281 L 6.554688 16.621094 C 7.941406 16.382812 8.179688 15.578125 8.21875 15.238281 " fill-opacity="1" fill-rule="nonzero"/><path fill="#ee7d60" d="M 7.027344 18.046875 C 7.027344 18.046875 7.144531 17.804688 7.132812 17.5 C 7.117188 17.195312 7.113281 16.621094 7.113281 16.621094 C 7.113281 16.621094 7.214844 17.722656 7.164062 17.875 C 7.113281 18.023438 7.027344 18.046875 7.027344 18.046875 " fill-opacity="1" fill-rule="nonzero"/><path fill="#ee6c52" d="M 6.859375 16.464844 C 6.859375 16.464844 7.390625 16.210938 7.640625 15.988281 C 7.890625 15.765625 8.082031 15.511719 8.082031 15.511719 C 8.082031 15.511719 7.914062 15.929688 7.550781 16.160156 C 7.1875 16.390625 6.859375 16.464844 6.859375 16.464844 " fill-opacity="1" fill-rule="nonzero"/><path fill="#ee6c52" d="M 6.941406 16.09375 C 6.941406 16.09375 7.226562 15.957031 7.363281 15.839844 C 7.496094 15.71875 7.597656 15.582031 7.597656 15.582031 C 7.597656 15.582031 7.507812 15.804688 7.3125 15.929688 C 7.117188 16.054688 6.941406 16.09375 6.941406 16.09375 " fill-opacity="1" fill-rule="nonzero"/><path fill="#fc8465" d="M 11.304688 18.136719 C 11.023438 18.140625 10.710938 18.117188 10.660156 17.996094 C 10.570312 17.765625 10.726562 16.203125 10.726562 16.203125 C 10.757812 15.722656 10.84375 15.421875 10.945312 15.238281 L 11.304688 15.238281 L 11.304688 18.136719 " fill-opacity="1" fill-rule="nonzero"/><path fill="#fc7256" d="M 9.644531 15.238281 L 11.304688 15.238281 L 11.304688 16.621094 C 9.917969 16.382812 9.679688 15.578125 9.644531 15.238281 " fill-opacity="1" fill-rule="nonzero"/><path fill="#ee7d60" d="M 10.832031 18.046875 C 10.832031 18.046875 10.746094 18.023438 10.695312 17.875 C 10.644531 17.722656 10.746094 16.621094 10.746094 16.621094 C 10.746094 16.621094 10.742188 17.195312 10.730469 17.5 C 10.714844 17.804688 10.832031 18.046875 10.832031 18.046875 " fill-opacity="1" fill-rule="nonzero"/><path fill="#ee6c52" d="M 11 16.464844 C 11 16.464844 10.671875 16.390625 10.308594 16.160156 C 9.945312 15.929688 9.78125 15.511719 9.78125 15.511719 C 9.78125 15.511719 9.96875 15.765625 10.21875 15.988281 C 10.46875 16.210938 11 16.464844 11 16.464844 " fill-opacity="1" fill-rule="nonzero"/><path fill="#ee6c52" d="M 10.917969 16.09375 C 10.917969 16.09375 10.742188 16.054688 10.546875 15.929688 C 10.351562 15.804688 10.261719 15.582031 10.261719 15.582031 C 10.261719 15.582031 10.363281 15.71875 10.496094 15.839844 C 10.632812 15.957031 10.917969 16.09375 10.917969 16.09375 " fill-opacity="1" fill-rule="nonzero"/><path fill="#f1f2f2" d="M 11.074219 18.507812 L 9.0625 18.507812 L 9.0625 15.464844 L 11.074219 15.464844 Z M 8.796875 18.507812 L 6.785156 18.507812 L 6.785156 15.464844 L 8.796875 15.464844 Z M 6.503906 15.199219 L 6.503906 18.765625 L 11.355469 18.765625 L 11.355469 15.199219 L 6.503906 15.199219 " fill-opacity="1" fill-rule="nonzero"/><path fill="#999773" d="M 11.515625 19.179688 L 6.34375 19.179688 L 6.34375 18.730469 L 11.515625 18.730469 L 11.515625 19.179688 " fill-opacity="1" fill-rule="nonzero"/><path fill="#f3e7cd" d="M 23.640625 18.953125 L 23.773438 18.953125 L 23.773438 18.730469 L 23.640625 18.730469 Z M 23.640625 18.953125 " fill-opacity="1" fill-rule="nonzero"/><path fill="#cfccb9" d="M 18.601562 18.953125 L 23.640625 18.953125 L 23.640625 18.730469 L 18.601562 18.730469 Z M 18.601562 18.953125 " fill-opacity="1" fill-rule="nonzero"/><path fill="#e3c68c" d="M 14.894531 11.214844 C 13.929688 11.214844 13.144531 10.414062 13.144531 9.421875 C 13.144531 8.433594 13.929688 7.628906 14.894531 7.628906 C 15.859375 7.628906 16.640625 8.433594 16.640625 9.421875 C 16.640625 10.414062 15.859375 11.214844 14.894531 11.214844 " fill-opacity="1" fill-rule="nonzero"/><path fill="#ffffff" d="M 16.496094 9.421875 C 16.496094 10.332031 15.777344 11.070312 14.894531 11.070312 C 14.007812 11.070312 13.289062 10.332031 13.289062 9.421875 C 13.289062 8.515625 14.007812 7.777344 14.894531 7.777344 C 15.777344 7.777344 16.496094 8.515625 16.496094 9.421875 " fill-opacity="1" fill-rule="nonzero"/><path fill="#5b4c49" d="M 16.171875 9.421875 C 16.171875 10.148438 15.601562 10.734375 14.894531 10.734375 C 14.1875 10.734375 13.613281 10.148438 13.613281 9.421875 C 13.613281 8.699219 14.1875 8.109375 14.894531 8.109375 C 15.601562 8.109375 16.171875 8.699219 16.171875 9.421875 " fill-opacity="1" fill-rule="nonzero"/><path fill="#ffffff" d="M 15.054688 8.121094 C 15 8.113281 14.949219 8.109375 14.894531 8.109375 C 14.839844 8.109375 14.785156 8.113281 14.734375 8.121094 L 14.734375 9.257812 L 13.625 9.257812 C 13.617188 9.3125 13.613281 9.367188 13.613281 9.421875 C 13.613281 9.480469 13.617188 9.535156 13.625 9.585938 L 14.734375 9.585938 L 14.734375 10.726562 C 14.785156 10.730469 14.839844 10.734375 14.894531 10.734375 C 14.949219 10.734375 15 10.730469 15.054688 10.726562 L 15.054688 9.585938 L 16.160156 9.585938 C 16.167969 9.535156 16.171875 9.480469 16.171875 9.421875 C 16.171875 9.367188 16.167969 9.3125 16.160156 9.257812 L 15.054688 9.257812 L 15.054688 8.121094 " fill-opacity="1" fill-rule="nonzero"/><path fill="#feeabc" d="M 7.625 20.453125 L 6.261719 20.453125 C 6.226562 20.453125 6.195312 20.425781 6.195312 20.386719 L 6.195312 19.828125 C 6.195312 19.789062 6.226562 19.757812 6.261719 19.757812 L 7.625 19.757812 C 7.660156 19.757812 7.6875 19.789062 7.6875 19.828125 L 7.6875 20.386719 C 7.6875 20.425781 7.660156 20.453125 7.625 20.453125 " fill-opacity="1" fill-rule="nonzero"/><path fill="#feeabc" d="M 11.757812 21.753906 L 10.394531 21.753906 C 10.359375 21.753906 10.328125 21.726562 10.328125 21.6875 L 10.328125 21.128906 C 10.328125 21.089844 10.359375 21.0625 10.394531 21.0625 L 11.757812 21.0625 C 11.792969 21.0625 11.824219 21.089844 11.824219 21.128906 L 11.824219 21.6875 C 11.824219 21.726562 11.792969 21.753906 11.757812 21.753906 " fill-opacity="1" fill-rule="nonzero"/><path fill="#fde2ae" d="M 19.359375 10.734375 L 17.996094 10.734375 C 17.960938 10.734375 17.933594 10.707031 17.933594 10.667969 L 17.933594 10.109375 C 17.933594 10.070312 17.960938 10.042969 17.996094 10.042969 L 19.359375 10.042969 C 19.394531 10.042969 19.425781 10.070312 19.425781 10.109375 L 19.425781 10.667969 C 19.425781 10.707031 19.394531 10.734375 19.359375 10.734375 " fill-opacity="1" fill-rule="nonzero"/><path fill="#feeabc" d="M 16.855469 13.382812 L 15.492188 13.382812 C 15.457031 13.382812 15.425781 13.351562 15.425781 13.316406 L 15.425781 12.757812 C 15.425781 12.71875 15.457031 12.6875 15.492188 12.6875 L 16.855469 12.6875 C 16.890625 12.6875 16.917969 12.71875 16.917969 12.757812 L 16.917969 13.316406 C 16.917969 13.351562 16.890625 13.382812 16.855469 13.382812 " fill-opacity="1" fill-rule="nonzero"/><path fill="#ead49f" d="M 10.765625 13.9375 L 9.402344 13.9375 C 9.367188 13.9375 9.335938 13.90625 9.335938 13.871094 L 9.335938 13.308594 C 9.335938 13.273438 9.367188 13.242188 9.402344 13.242188 L 10.765625 13.242188 C 10.800781 13.242188 10.832031 13.273438 10.832031 13.308594 L 10.832031 13.871094 C 10.832031 13.90625 10.800781 13.9375 10.765625 13.9375 " fill-opacity="1" fill-rule="nonzero"/><path fill="#e1643d" d="M 8.9375 7.375 L 7.574219 7.375 C 7.539062 7.375 7.507812 7.34375 7.507812 7.308594 L 7.507812 6.75 C 7.507812 6.710938 7.539062 6.679688 7.574219 6.679688 L 8.9375 6.679688 C 8.972656 6.679688 9.003906 6.710938 9.003906 6.75 L 9.003906 7.308594 C 9.003906 7.34375 8.972656 7.375 8.9375 7.375 " fill-opacity="1" fill-rule="nonzero"/><path fill="#ead49f" d="M 20.882812 21.863281 L 19.523438 21.863281 C 19.484375 21.863281 19.457031 21.835938 19.457031 21.796875 L 19.457031 21.238281 C 19.457031 21.199219 19.484375 21.171875 19.523438 21.171875 L 20.882812 21.171875 C 20.921875 21.171875 20.949219 21.199219 20.949219 21.238281 L 20.949219 21.796875 C 20.949219 21.835938 20.921875 21.863281 20.882812 21.863281 " fill-opacity="1" fill-rule="nonzero"/><path fill="#ead49f" d="M 22.582031 13.242188 L 21.222656 13.242188 C 21.183594 13.242188 21.15625 13.210938 21.15625 13.175781 L 21.15625 12.617188 C 21.15625 12.578125 21.183594 12.546875 21.222656 12.546875 L 22.582031 12.546875 C 22.621094 12.546875 22.648438 12.578125 22.648438 12.617188 L 22.648438 13.175781 C 22.648438 13.210938 22.621094 13.242188 22.582031 13.242188 " fill-opacity="1" fill-rule="nonzero"/><g clip-path="url(#c17aa7339f)"><path fill="#ba8a1e" d="M 23.527344 24.488281 L 23.761719 24.488281 L 23.761719 22.320312 L 23.527344 22.320312 Z M 23.527344 24.488281 " fill-opacity="1" fill-rule="nonzero"/><path fill="#987219" d="M 23.761719 24.488281 L 23.660156 24.488281 L 23.660156 22.320312 L 23.761719 22.320312 L 23.761719 24.488281 " fill-opacity="1" fill-rule="nonzero"/></g><path fill="#91c422" d="M 24.890625 21.820312 C 24.890625 22.527344 24.332031 23.097656 23.644531 23.097656 C 22.957031 23.097656 22.398438 22.527344 22.398438 21.820312 C 22.398438 21.113281 22.957031 20.542969 23.644531 20.542969 C 24.332031 20.542969 24.890625 21.113281 24.890625 21.820312 " fill-opacity="1" fill-rule="nonzero"/><path fill="#8ab515" d="M 23.910156 20.570312 C 24.273438 20.792969 24.515625 21.199219 24.515625 21.664062 C 24.515625 22.371094 23.957031 22.945312 23.265625 22.945312 C 23.175781 22.945312 23.085938 22.933594 23.003906 22.914062 C 23.191406 23.03125 23.410156 23.097656 23.644531 23.097656 C 24.332031 23.097656 24.890625 22.527344 24.890625 21.820312 C 24.890625 21.207031 24.472656 20.695312 23.910156 20.570312 " fill-opacity="1" fill-rule="nonzero"/><g clip-path="url(#60b52ded4e)"><path fill="#ba8a1e" d="M 20.523438 24.488281 L 20.761719 24.488281 L 20.761719 22.320312 L 20.523438 22.320312 Z M 20.523438 24.488281 " fill-opacity="1" fill-rule="nonzero"/><path fill="#987219" d="M 20.761719 24.488281 L 20.660156 24.488281 L 20.660156 22.320312 L 20.761719 22.320312 L 20.761719 24.488281 " fill-opacity="1" fill-rule="nonzero"/></g><path fill="#91c422" d="M 21.890625 21.820312 C 21.890625 22.527344 21.332031 23.097656 20.644531 23.097656 C 19.953125 23.097656 19.394531 22.527344 19.394531 21.820312 C 19.394531 21.113281 19.953125 20.542969 20.644531 20.542969 C 21.332031 20.542969 21.890625 21.113281 21.890625 21.820312 " fill-opacity="1" fill-rule="nonzero"/><path fill="#8ab515" d="M 20.910156 20.570312 C 21.269531 20.792969 21.511719 21.199219 21.511719 21.664062 C 21.511719 22.371094 20.953125 22.945312 20.265625 22.945312 C 20.175781 22.945312 20.085938 22.933594 20 22.914062 C 20.1875 23.03125 20.40625 23.097656 20.644531 23.097656 C 21.332031 23.097656 21.890625 22.527344 21.890625 21.820312 C 21.890625 21.207031 21.46875 20.695312 20.910156 20.570312 " fill-opacity="1" fill-rule="nonzero"/><g clip-path="url(#71fb1fd658)"><path fill="#ba8a1e" d="M 9.023438 24.488281 L 9.261719 24.488281 L 9.261719 22.320312 L 9.023438 22.320312 Z M 9.023438 24.488281 " fill-opacity="1" fill-rule="nonzero"/><path fill="#987219" d="M 9.261719 24.488281 L 9.160156 24.488281 L 9.160156 22.320312 L 9.261719 22.320312 L 9.261719 24.488281 " fill-opacity="1" fill-rule="nonzero"/></g><path fill="#91c422" d="M 10.390625 21.820312 C 10.390625 22.527344 9.832031 23.097656 9.144531 23.097656 C 8.453125 23.097656 7.894531 22.527344 7.894531 21.820312 C 7.894531 21.113281 8.453125 20.542969 9.144531 20.542969 C 9.832031 20.542969 10.390625 21.113281 10.390625 21.820312 " fill-opacity="1" fill-rule="nonzero"/><path fill="#8ab515" d="M 9.410156 20.570312 C 9.769531 20.792969 10.011719 21.199219 10.011719 21.664062 C 10.011719 22.371094 9.453125 22.945312 8.765625 22.945312 C 8.675781 22.945312 8.585938 22.933594 8.5 22.914062 C 8.6875 23.03125 8.90625 23.097656 9.144531 23.097656 C 9.832031 23.097656 10.390625 22.527344 10.390625 21.820312 C 10.390625 21.207031 9.96875 20.695312 9.410156 20.570312 " fill-opacity="1" fill-rule="nonzero"/><g clip-path="url(#2bcf878860)"><path fill="#ba8a1e" d="M 6.023438 24.488281 L 6.261719 24.488281 L 6.261719 22.320312 L 6.023438 22.320312 Z M 6.023438 24.488281 " fill-opacity="1" fill-rule="nonzero"/><path fill="#987219" d="M 6.261719 24.488281 L 6.15625 24.488281 L 6.15625 22.320312 L 6.261719 22.320312 L 6.261719 24.488281 " fill-opacity="1" fill-rule="nonzero"/></g><path fill="#91c422" d="M 7.390625 21.820312 C 7.390625 22.527344 6.832031 23.097656 6.140625 23.097656 C 5.453125 23.097656 4.894531 22.527344 4.894531 21.820312 C 4.894531 21.113281 5.453125 20.542969 6.140625 20.542969 C 6.832031 20.542969 7.390625 21.113281 7.390625 21.820312 " fill-opacity="1" fill-rule="nonzero"/><path fill="#8ab515" d="M 6.40625 20.570312 C 6.769531 20.792969 7.011719 21.199219 7.011719 21.664062 C 7.011719 22.371094 6.453125 22.945312 5.765625 22.945312 C 5.671875 22.945312 5.585938 22.933594 5.5 22.914062 C 5.6875 23.03125 5.90625 23.097656 6.140625 23.097656 C 6.832031 23.097656 7.390625 22.527344 7.390625 21.820312 C 7.390625 21.207031 6.96875 20.695312 6.40625 20.570312 " fill-opacity="1" fill-rule="nonzero"/><g clip-path="url(#11c504e70d)"><path fill="#91c422" d="M 27.585938 24.589844 L 2.203125 24.589844 L 2.203125 24.050781 L 27.585938 24.050781 L 27.585938 24.589844 " fill-opacity="1" fill-rule="nonzero"/><path fill="#82a818" d="M 27.585938 24.847656 L 2.203125 24.847656 L 2.203125 24.589844 L 27.585938 24.589844 L 27.585938 24.847656 " fill-opacity="1" fill-rule="nonzero"/></g><path fill="#a6d12f" d="M 20.351562 21.5625 C 20.175781 21.71875 19.9375 21.730469 19.816406 21.589844 C 19.699219 21.449219 19.746094 21.207031 19.921875 21.050781 C 20.101562 20.894531 20.339844 20.882812 20.460938 21.023438 C 20.578125 21.164062 20.53125 21.40625 20.351562 21.5625 " fill-opacity="1" fill-rule="nonzero"/><path fill="#a6d12f" d="M 8.820312 21.5625 C 8.640625 21.71875 8.402344 21.730469 8.28125 21.589844 C 8.164062 21.449219 8.210938 21.207031 8.390625 21.050781 C 8.566406 20.894531 8.804688 20.882812 8.925781 21.023438 C 9.042969 21.164062 8.996094 21.40625 8.820312 21.5625 " fill-opacity="1" fill-rule="nonzero"/><path fill="#a6d12f" d="M 5.902344 21.5625 C 5.726562 21.71875 5.484375 21.730469 5.367188 21.589844 C 5.25 21.449219 5.296875 21.207031 5.472656 21.050781 C 5.652344 20.894531 5.890625 20.882812 6.007812 21.023438 C 6.128906 21.164062 6.082031 21.40625 5.902344 21.5625 " fill-opacity="1" fill-rule="nonzero"/><path fill="#a6d12f" d="M 23.355469 21.5625 C 23.175781 21.71875 22.9375 21.730469 22.820312 21.589844 C 22.699219 21.449219 22.746094 21.207031 22.925781 21.050781 C 23.101562 20.894531 23.34375 20.882812 23.460938 21.023438 C 23.578125 21.164062 23.53125 21.40625 23.355469 21.5625 " fill-opacity="1" fill-rule="nonzero"/><g fill="#ffffff" fill-opacity="1"><g transform="translate(14.444304, 27.217744)"><g><path d="M 0.21875 -0.265625 C 0.21875 -0.367188 0.242188 -0.445312 0.296875 -0.5 C 0.359375 -0.5625 0.441406 -0.59375 0.546875 -0.59375 C 0.660156 -0.59375 0.742188 -0.5625 0.796875 -0.5 C 0.859375 -0.445312 0.890625 -0.367188 0.890625 -0.265625 C 0.890625 -0.171875 0.859375 -0.09375 0.796875 -0.03125 C 0.734375 0.0195312 0.648438 0.046875 0.546875 0.046875 C 0.441406 0.046875 0.359375 0.0195312 0.296875 -0.03125 C 0.242188 -0.09375 0.21875 -0.171875 0.21875 -0.265625 Z M 0.21875 -0.265625 "/></g></g></g></svg>